<svg id="Layer_1" data-name="Layer 1" xmlns="http://www.w3.org/2000/svg" viewBox="0 0 96 96"><path d="M75.64,70.71a.86.86,0,0,1-.23,0l-29.19-7a1,1,0,0,1-.74-.73L42.41,50.51A1,1,0,1,1,44.35,50l2.93,11.82,27,6.51L64,26.66,60.38,29.8A1,1,0,0,1,59,29.71a1,1,0,0,1,.09-1.41l4.8-4.23a1,1,0,0,1,1-.2,1,1,0,0,1,.68.71L76.61,69.47a1,1,0,0,1-.26,1A1,1,0,0,1,75.64,70.71Z"/><path d="M28.54,68a5.41,5.41,0,0,1-5.23-4.1L21,54.4a5.38,5.38,0,0,1,3.94-6.53L28.56,47A1,1,0,0,1,29,48.91l-3.65.9a3.4,3.4,0,0,0-2.48,4.11l2.34,9.48a3.41,3.41,0,0,0,4.12,2.48L45.24,62,42.41,50.51A1,1,0,1,1,44.35,50l3.07,12.41a1,1,0,0,1-.73,1.21L29.85,67.82A5.28,5.28,0,0,1,28.54,68Z"/><path d="M43.94,90.11a4.81,4.81,0,0,1-4.37-2.8L30.2,66.89a1,1,0,0,1,0-.85,1,1,0,0,1,.66-.54l11.38-2.81a1,1,0,0,1,1.21.73l5.13,20.74A4.8,4.8,0,0,1,45.09,90h0A5,5,0,0,1,43.94,90.11Zm-11.42-23,8.87,19.32A2.81,2.81,0,0,0,44.61,88h0a2.8,2.8,0,0,0,2-3.39L41.76,64.87Z"/><path d="M71.82,55.29a1,1,0,0,1-1-.76l-3.48-14a1,1,0,0,1,.73-1.21l1-.24a8.22,8.22,0,0,1,10,6,8.23,8.23,0,0,1-6,10h0l-1,.24A1,1,0,0,1,71.82,55.29Zm1-1.24h0ZM69.56,41l3,12.1a6.24,6.24,0,0,0,4.53-7.54A6.23,6.23,0,0,0,69.56,41Z"/><path d="M80,39.66a1,1,0,0,1-.67-.26A1,1,0,0,1,79.28,38l6.81-7.65a1,1,0,0,1,1.41-.09,1,1,0,0,1,.08,1.42l-6.81,7.65A1,1,0,0,1,80,39.66Z"/><path d="M92.49,54.84a.84.84,0,0,1-.35-.07l-9.6-3.59A1,1,0,0,1,82,49.9a1,1,0,0,1,1.29-.59l9.59,3.59a1,1,0,0,1-.35,1.94Z"/><path d="M83.13,45a1,1,0,0,1-1-.76,1,1,0,0,1,.73-1.21l9.87-2.45a1,1,0,0,1,1.21.73,1,1,0,0,1-.73,1.21L83.37,45A1,1,0,0,1,83.13,45Z"/><path d="M24.76,29.25c-3,0-5.35-3.34-5.35-7.6S21.76,14,24.76,14s5.34,3.34,5.34,7.61S27.76,29.25,24.76,29.25Zm0-13.21c-1.82,0-3.35,2.57-3.35,5.61s1.53,5.6,3.35,5.6,3.34-2.57,3.34-5.6S26.57,16,24.76,16Z"/><path d="M38,40.78c-3,0-5.34-3.34-5.34-7.6S35,25.58,38,25.58s5.35,3.34,5.35,7.6S41,40.78,38,40.78Zm0-13.2c-1.81,0-3.34,2.56-3.34,5.6s1.53,5.6,3.34,5.6,3.35-2.56,3.35-5.6S39.78,27.58,38,27.58Z"/><path d="M24.76,40.78a1,1,0,0,1-.5-.13,1,1,0,0,1-.37-1.36L37.1,16.22a1,1,0,1,1,1.73,1L25.63,40.28A1,1,0,0,1,24.76,40.78Z"/><path d="M51.34,59.1a1,1,0,0,1-.71-.29l-9.87-9.88H6.58A4.58,4.58,0,0,1,2,44.36V10.46A4.58,4.58,0,0,1,6.58,5.89H56.15a4.58,4.58,0,0,1,4.57,4.57v33.9a4.58,4.58,0,0,1-4.57,4.57H52.34V58.1a1,1,0,0,1-.62.93A1,1,0,0,1,51.34,59.1ZM6.58,7.89A2.58,2.58,0,0,0,4,10.46v33.9a2.58,2.58,0,0,0,2.58,2.57H41.17a1,1,0,0,1,.71.3l8.46,8.46V47.93a1,1,0,0,1,1-1h4.81a2.57,2.57,0,0,0,2.57-2.57V10.46a2.57,2.57,0,0,0-2.57-2.57Z"/></svg>