<?xml version="1.0" standalone="no"?>
<!DOCTYPE svg PUBLIC "-//W3C//DTD SVG 20010904//EN"
 "http://www.w3.org/TR/2001/REC-SVG-20010904/DTD/svg10.dtd">
<svg version="1.0" xmlns="http://www.w3.org/2000/svg"
 width="1280.000000pt" height="1280.000000pt" viewBox="0 0 1280.000000 1280.000000"
 preserveAspectRatio="xMidYMid meet">
<g transform="translate(0.000000,1280.000000) scale(0.100000,-0.100000)"
fill="#000000" stroke="none">
<path d="M5100 12135 c-124 -29 -203 -71 -282 -152 -54 -55 -104 -150 -118
-224 -13 -67 -13 -271 0 -340 13 -72 89 -222 145 -286 l45 -51 0 -1963 0
-1962 -114 -196 c-62 -108 -133 -230 -157 -271 -23 -41 -79 -138 -124 -215
-45 -77 -110 -189 -144 -250 -112 -194 -201 -350 -211 -365 -20 -32 -210 -363
-210 -366 0 -2 -33 -57 -73 -121 -41 -65 -99 -163 -131 -218 -31 -55 -61 -107
-66 -115 -11 -18 -161 -276 -217 -375 -22 -38 -84 -146 -138 -240 -192 -334
-248 -431 -273 -475 -14 -25 -33 -56 -44 -69 -10 -13 -18 -27 -18 -32 0 -4
-28 -54 -61 -111 -34 -57 -123 -211 -199 -343 -228 -398 -315 -548 -343 -592
-15 -24 -27 -47 -27 -52 0 -6 -45 -87 -100 -182 -55 -94 -100 -173 -100 -175
0 -2 -33 -59 -73 -127 -56 -94 -251 -432 -332 -574 -53 -93 -89 -157 -155
-268 -145 -246 -160 -283 -160 -394 0 -73 14 -131 45 -191 28 -55 113 -130
180 -161 l65 -29 4690 0 4690 0 65 29 c142 65 225 194 225 352 0 111 -15 148
-160 394 -66 111 -102 175 -155 268 -81 142 -276 480 -332 574 -40 68 -73 125
-73 127 0 3 -190 335 -210 366 -5 8 -41 69 -79 135 -38 66 -117 203 -176 305
-59 102 -139 241 -177 310 -39 69 -75 130 -80 136 -5 7 -47 79 -94 160 -219
381 -393 682 -475 823 -49 85 -89 156 -89 158 0 2 -11 20 -24 41 -13 20 -61
102 -106 182 -46 80 -123 213 -171 295 -48 83 -98 170 -112 195 -34 62 -195
342 -207 360 -11 18 -43 73 -168 290 -53 91 -142 245 -199 343 -57 98 -103
180 -103 183 0 3 -15 29 -33 57 -19 29 -75 124 -125 212 l-92 161 0 1996 0
1996 24 29 c45 54 93 138 115 203 31 88 41 338 18 447 -40 186 -156 313 -331
359 -73 20 -2582 19 -2666 -1z m2589 -389 c19 -18 21 -29 21 -162 l0 -142 -33
-44 c-19 -25 -52 -52 -80 -66 l-47 -22 0 -2156 0 -2157 32 -56 c17 -31 71
-123 119 -206 48 -82 97 -168 109 -189 12 -21 61 -107 109 -190 115 -198 293
-506 394 -681 169 -295 191 -332 237 -410 26 -44 68 -116 92 -160 25 -44 61
-107 80 -140 19 -33 78 -136 132 -228 53 -92 129 -223 168 -290 84 -144 112
-193 130 -227 8 -14 55 -95 105 -180 49 -85 152 -263 228 -395 76 -132 168
-292 205 -355 37 -63 84 -146 105 -185 21 -38 50 -88 64 -110 22 -35 352 -606
419 -725 13 -25 56 -99 95 -165 39 -66 88 -151 110 -190 22 -38 50 -86 62
-105 12 -19 33 -55 47 -80 13 -25 86 -153 162 -284 76 -132 150 -260 164 -285
14 -26 34 -59 44 -76 10 -16 18 -36 18 -42 0 -10 -923 -13 -4580 -13 -3657 0
-4580 3 -4580 13 0 6 8 26 18 42 10 17 30 51 45 77 14 25 60 106 103 180 42
73 120 207 172 298 52 91 111 192 130 225 19 33 54 94 77 135 23 41 60 104 82
140 22 36 53 90 70 120 59 105 399 695 424 735 14 22 43 72 64 110 21 39 68
122 105 185 37 63 129 223 205 355 76 132 179 310 228 395 50 85 97 166 105
180 19 36 44 80 187 325 70 121 145 252 167 290 22 39 57 99 79 135 21 36 51
88 65 115 15 28 47 84 72 125 26 41 62 104 82 140 21 36 71 124 112 195 41 72
127 220 190 330 121 210 252 435 373 645 40 69 125 216 189 327 l116 202 0
2130 0 2129 -40 16 c-47 18 -115 78 -136 117 -10 20 -14 63 -14 144 0 109 1
117 24 140 13 13 41 27 62 30 22 3 46 8 54 10 8 1 560 2 1226 1 1177 -1 1213
-2 1233 -20z"/>
<path d="M6702 8744 c-166 -83 -191 -305 -49 -430 100 -88 237 -87 337 3 144
129 105 364 -73 438 -59 24 -154 20 -215 -11z"/>
<path d="M7065 7871 c-101 -46 -155 -129 -155 -241 0 -149 106 -260 248 -260
75 0 125 17 173 59 58 49 89 119 89 201 0 150 -107 260 -255 260 -37 0 -75 -7
-100 -19z"/>
<path d="M6115 7362 c-74 -26 -116 -55 -178 -122 -77 -83 -101 -147 -102 -271
0 -90 2 -99 37 -171 108 -217 375 -302 598 -188 70 36 154 122 186 193 26 56
29 72 29 172 0 100 -2 115 -28 167 -43 88 -107 152 -195 195 -72 36 -81 38
-186 40 -85 2 -123 -2 -161 -15z"/>
<path d="M5372 6647 c-46 -14 -121 -84 -143 -132 -13 -27 -19 -64 -19 -115 0
-93 21 -141 83 -196 137 -121 354 -65 412 105 60 175 -62 353 -239 350 -34 -1
-76 -6 -94 -12z"/>
<path d="M6874 6560 c-70 -24 -121 -59 -174 -116 -59 -63 -89 -127 -101 -214
-36 -254 159 -469 426 -470 124 0 227 44 313 134 91 95 107 137 107 276 0 103
-3 121 -26 171 -48 102 -139 183 -246 220 -75 25 -226 25 -299 -1z"/>
<path d="M5965 6066 c-83 -36 -155 -146 -155 -237 0 -97 52 -186 138 -236 39
-23 58 -28 122 -28 54 0 85 5 110 19 156 82 197 282 84 414 -50 59 -105 82
-195 82 -41 -1 -87 -7 -104 -14z"/>
<path d="M4737 5358 c-14 -22 -274 -478 -325 -568 -13 -25 -51 -90 -82 -145
-65 -113 -435 -764 -543 -955 -39 -69 -86 -148 -104 -177 -18 -28 -33 -54 -33
-57 0 -3 -25 -49 -57 -103 -31 -54 -65 -114 -76 -133 -10 -19 -36 -64 -57
-100 -20 -36 -48 -85 -62 -110 -14 -25 -86 -151 -161 -281 -74 -130 -145 -254
-156 -275 -12 -21 -25 -46 -31 -54 -10 -17 -108 -187 -138 -242 -12 -20 -48
-83 -80 -140 -271 -469 -342 -602 -330 -609 20 -13 7785 -11 7793 2 7 10 -73
157 -212 391 -35 59 -63 109 -63 112 0 2 -21 40 -46 83 -26 43 -59 101 -74
128 -24 43 -199 351 -405 710 -34 61 -75 133 -90 160 -15 28 -31 55 -35 60 -4
6 -37 62 -73 125 -35 63 -128 228 -207 365 -78 138 -181 318 -227 400 -47 83
-109 191 -138 240 -65 113 -128 224 -168 295 -17 30 -38 67 -46 82 -15 25
-309 540 -341 596 -8 15 -33 59 -55 97 -22 39 -44 79 -50 90 -10 20 -24 20
-845 26 -459 3 -1203 7 -1652 8 l-818 1 -13 -22z"/>
</g>
</svg>
